<mxfile host="app.diagrams.net" agent="Mozilla/5.0 (Windows NT 10.0; Win64; x64) AppleWebKit/537.36 (KHTML, like Gecko) Chrome/126.0.0.0 YaBrowser/24.7.0.0 Safari/537.36" version="24.7.16">
  <diagram name="Страница — 1" id="9RAW0U6VBFOoRO0kCPcA">
    <mxGraphModel dx="2074" dy="1143" grid="1" gridSize="10" guides="1" tooltips="1" connect="1" arrows="1" fold="1" page="1" pageScale="1" pageWidth="827" pageHeight="1169" math="0" shadow="0">
      <root>
        <mxCell id="0" />
        <mxCell id="1" parent="0" />
        <mxCell id="GMgN1Cl_ILHEnfedxMWd-1" style="edgeStyle=orthogonalEdgeStyle;rounded=0;orthogonalLoop=1;jettySize=auto;html=1;entryX=0;entryY=0.5;entryDx=0;entryDy=0;dashed=1;" parent="1" source="GMgN1Cl_ILHEnfedxMWd-3" target="GMgN1Cl_ILHEnfedxMWd-9" edge="1">
          <mxGeometry relative="1" as="geometry" />
        </mxCell>
        <mxCell id="9AeZooRBN76Ic_oo0eFn-1" style="edgeStyle=orthogonalEdgeStyle;rounded=0;orthogonalLoop=1;jettySize=auto;html=1;entryX=1;entryY=0.5;entryDx=0;entryDy=0;dashed=1;" edge="1" parent="1" source="GMgN1Cl_ILHEnfedxMWd-3" target="GMgN1Cl_ILHEnfedxMWd-5">
          <mxGeometry relative="1" as="geometry" />
        </mxCell>
        <mxCell id="GMgN1Cl_ILHEnfedxMWd-3" value="ValueValidator" style="swimlane;whiteSpace=wrap;html=1;" parent="1" vertex="1">
          <mxGeometry x="360" y="200" width="200" height="200" as="geometry" />
        </mxCell>
        <mxCell id="GMgN1Cl_ILHEnfedxMWd-4" value="+AssertStringOnLength(string, int, string): void" style="text;html=1;align=center;verticalAlign=middle;whiteSpace=wrap;rounded=0;fontStyle=4;fillColor=default;" parent="GMgN1Cl_ILHEnfedxMWd-3" vertex="1">
          <mxGeometry y="30" width="200" height="170" as="geometry" />
        </mxCell>
        <mxCell id="GMgN1Cl_ILHEnfedxMWd-5" value="Item" style="swimlane;whiteSpace=wrap;html=1;" parent="1" vertex="1">
          <mxGeometry x="80" y="320" width="200" height="200" as="geometry" />
        </mxCell>
        <mxCell id="GMgN1Cl_ILHEnfedxMWd-6" value="&lt;u&gt;-_idCounter: int&lt;/u&gt;&lt;div&gt;-_id: int&lt;/div&gt;&lt;div&gt;-_name: string&lt;/div&gt;&lt;div&gt;-_info: string&lt;/div&gt;&lt;div&gt;-_cost: int&lt;/div&gt;" style="text;html=1;align=left;verticalAlign=middle;whiteSpace=wrap;rounded=0;fillColor=default;" parent="GMgN1Cl_ILHEnfedxMWd-5" vertex="1">
          <mxGeometry y="30" width="200" height="70" as="geometry" />
        </mxCell>
        <mxCell id="GMgN1Cl_ILHEnfedxMWd-7" value="+ID {get; private set;}(): int&lt;div&gt;+Name {get; set;}(): string&lt;/div&gt;&lt;div&gt;+Info {get; set;}(): string&lt;/div&gt;&lt;div&gt;+Cost {get; set;}(): string&lt;/div&gt;&lt;div&gt;+Category {get; set;}(): Category&lt;/div&gt;" style="text;html=1;align=left;verticalAlign=middle;whiteSpace=wrap;rounded=0;fillColor=default;" parent="GMgN1Cl_ILHEnfedxMWd-5" vertex="1">
          <mxGeometry y="110" width="200" height="90" as="geometry" />
        </mxCell>
        <mxCell id="GMgN1Cl_ILHEnfedxMWd-8" value="" style="endArrow=none;html=1;rounded=0;exitX=0;exitY=0.5;exitDx=0;exitDy=0;entryX=1;entryY=0.5;entryDx=0;entryDy=0;" parent="1" source="GMgN1Cl_ILHEnfedxMWd-5" target="GMgN1Cl_ILHEnfedxMWd-5" edge="1">
          <mxGeometry width="50" height="50" relative="1" as="geometry">
            <mxPoint x="110" y="460" as="sourcePoint" />
            <mxPoint x="160" y="410" as="targetPoint" />
          </mxGeometry>
        </mxCell>
        <mxCell id="GMgN1Cl_ILHEnfedxMWd-9" value="Customer" style="swimlane;whiteSpace=wrap;html=1;fillColor=default;" parent="1" vertex="1">
          <mxGeometry x="640" y="320" width="200" height="200" as="geometry" />
        </mxCell>
        <mxCell id="GMgN1Cl_ILHEnfedxMWd-10" value="&lt;u&gt;-_idCounter: int&lt;/u&gt;&lt;div&gt;-_id: int&lt;/div&gt;&lt;div&gt;-_fullName: string&lt;/div&gt;&lt;div&gt;-_address: Address&lt;/div&gt;" style="text;html=1;align=left;verticalAlign=middle;whiteSpace=wrap;rounded=0;fillColor=default;" parent="GMgN1Cl_ILHEnfedxMWd-9" vertex="1">
          <mxGeometry y="30" width="200" height="70" as="geometry" />
        </mxCell>
        <mxCell id="GMgN1Cl_ILHEnfedxMWd-11" value="+ID {get; private set;}(): int&lt;div&gt;+FullName {get; set;}(): string&lt;/div&gt;&lt;div&gt;+Adress {get; set;}(): Address&lt;/div&gt;&lt;div&gt;&lt;br&gt;&lt;/div&gt;" style="text;html=1;align=left;verticalAlign=middle;whiteSpace=wrap;rounded=0;fillColor=default;" parent="GMgN1Cl_ILHEnfedxMWd-9" vertex="1">
          <mxGeometry y="100" width="200" height="100" as="geometry" />
        </mxCell>
        <mxCell id="GMgN1Cl_ILHEnfedxMWd-12" value="" style="endArrow=none;html=1;rounded=0;exitX=0;exitY=0.5;exitDx=0;exitDy=0;entryX=1;entryY=0.5;entryDx=0;entryDy=0;" parent="1" source="GMgN1Cl_ILHEnfedxMWd-9" target="GMgN1Cl_ILHEnfedxMWd-9" edge="1">
          <mxGeometry width="50" height="50" relative="1" as="geometry">
            <mxPoint x="670" y="460" as="sourcePoint" />
            <mxPoint x="720" y="410" as="targetPoint" />
          </mxGeometry>
        </mxCell>
        <mxCell id="9AeZooRBN76Ic_oo0eFn-6" style="rounded=0;orthogonalLoop=1;jettySize=auto;html=1;entryX=0.5;entryY=1;entryDx=0;entryDy=0;edgeStyle=orthogonalEdgeStyle;endArrow=open;endFill=0;startArrow=diamondThin;startFill=1;endSize=10;startSize=20;" edge="1" parent="1" source="9AeZooRBN76Ic_oo0eFn-2" target="GMgN1Cl_ILHEnfedxMWd-9">
          <mxGeometry relative="1" as="geometry" />
        </mxCell>
        <mxCell id="9AeZooRBN76Ic_oo0eFn-7" style="edgeStyle=orthogonalEdgeStyle;rounded=0;orthogonalLoop=1;jettySize=auto;html=1;entryX=0.5;entryY=1;entryDx=0;entryDy=0;endSize=10;startSize=20;startArrow=diamondThin;startFill=1;endArrow=open;endFill=0;" edge="1" parent="1" source="9AeZooRBN76Ic_oo0eFn-2" target="GMgN1Cl_ILHEnfedxMWd-5">
          <mxGeometry relative="1" as="geometry" />
        </mxCell>
        <mxCell id="9AeZooRBN76Ic_oo0eFn-2" value="Store" style="swimlane;whiteSpace=wrap;html=1;" vertex="1" parent="1">
          <mxGeometry x="360" y="520" width="200" height="200" as="geometry" />
        </mxCell>
        <mxCell id="9AeZooRBN76Ic_oo0eFn-3" value="-_items: List&amp;lt;Item&amp;gt;&lt;div&gt;-_customers: List&amp;lt;Customer&amp;gt;&lt;/div&gt;" style="text;html=1;align=left;verticalAlign=middle;whiteSpace=wrap;rounded=0;fillColor=default;" vertex="1" parent="9AeZooRBN76Ic_oo0eFn-2">
          <mxGeometry y="30" width="200" height="70" as="geometry" />
        </mxCell>
        <mxCell id="9AeZooRBN76Ic_oo0eFn-4" value="+ Items{ get; set; }(): List&amp;lt;Item&amp;gt;&lt;div&gt;+ Customers{ get; set; }(): List&amp;lt;Customer&lt;span style=&quot;background-color: initial;&quot;&gt;&amp;gt;&lt;/span&gt;&lt;/div&gt;" style="text;html=1;align=left;verticalAlign=middle;whiteSpace=wrap;rounded=0;fillColor=default;" vertex="1" parent="9AeZooRBN76Ic_oo0eFn-2">
          <mxGeometry y="100" width="200" height="100" as="geometry" />
        </mxCell>
        <mxCell id="9AeZooRBN76Ic_oo0eFn-5" value="" style="endArrow=none;html=1;rounded=0;exitX=0;exitY=0.5;exitDx=0;exitDy=0;entryX=1;entryY=0.5;entryDx=0;entryDy=0;" edge="1" parent="1" source="9AeZooRBN76Ic_oo0eFn-2" target="9AeZooRBN76Ic_oo0eFn-2">
          <mxGeometry width="50" height="50" relative="1" as="geometry">
            <mxPoint x="390" y="660" as="sourcePoint" />
            <mxPoint x="440" y="610" as="targetPoint" />
          </mxGeometry>
        </mxCell>
        <mxCell id="9AeZooRBN76Ic_oo0eFn-13" style="edgeStyle=orthogonalEdgeStyle;rounded=0;orthogonalLoop=1;jettySize=auto;html=1;entryX=1;entryY=0.5;entryDx=0;entryDy=0;endSize=20;startSize=10;startArrow=open;startFill=0;endArrow=diamondThin;endFill=1;" edge="1" parent="1" source="9AeZooRBN76Ic_oo0eFn-8" target="GMgN1Cl_ILHEnfedxMWd-9">
          <mxGeometry relative="1" as="geometry" />
        </mxCell>
        <mxCell id="9AeZooRBN76Ic_oo0eFn-8" value="Address" style="swimlane;whiteSpace=wrap;html=1;" vertex="1" parent="1">
          <mxGeometry x="960" y="300" width="200" height="240" as="geometry" />
        </mxCell>
        <mxCell id="9AeZooRBN76Ic_oo0eFn-9" value="&lt;div&gt;-_index: int&lt;/div&gt;&lt;div&gt;- _country:&amp;nbsp;&lt;span style=&quot;background-color: initial;&quot;&gt;string&lt;/span&gt;&lt;/div&gt;&lt;div&gt;-_city:&amp;nbsp;&lt;span style=&quot;background-color: initial;&quot;&gt;string&lt;/span&gt;&lt;/div&gt;&lt;div&gt;-_street&lt;span style=&quot;background-color: initial;&quot;&gt;:&amp;nbsp;&lt;/span&gt;&lt;span style=&quot;background-color: initial;&quot;&gt;string&lt;/span&gt;&lt;/div&gt;&lt;div&gt;-_building&lt;span style=&quot;background-color: initial;&quot;&gt;:&amp;nbsp;&lt;/span&gt;&lt;span style=&quot;background-color: initial;&quot;&gt;string&lt;/span&gt;&lt;/div&gt;&lt;div&gt;-_apartment&lt;span style=&quot;background-color: initial;&quot;&gt;:&amp;nbsp;&lt;/span&gt;&lt;span style=&quot;background-color: initial;&quot;&gt;string&lt;/span&gt;&lt;/div&gt;" style="text;html=1;align=left;verticalAlign=middle;whiteSpace=wrap;rounded=0;fillColor=default;" vertex="1" parent="9AeZooRBN76Ic_oo0eFn-8">
          <mxGeometry y="30" width="200" height="110" as="geometry" />
        </mxCell>
        <mxCell id="9AeZooRBN76Ic_oo0eFn-10" value="+Index{get; set;}(): int&lt;div&gt;+Country&lt;span style=&quot;background-color: initial;&quot;&gt;{get; set;}(): string&lt;/span&gt;&lt;/div&gt;&lt;div&gt;&lt;span style=&quot;background-color: initial;&quot;&gt;+City&lt;/span&gt;&lt;span style=&quot;background-color: initial;&quot;&gt;{get; set;}(): string&lt;/span&gt;&lt;/div&gt;&lt;div&gt;&lt;span style=&quot;background-color: initial;&quot;&gt;+Street&lt;/span&gt;&lt;span style=&quot;background-color: initial;&quot;&gt;{get; set;}(): string&lt;/span&gt;&lt;/div&gt;&lt;div&gt;&lt;span style=&quot;background-color: initial;&quot;&gt;+Building&lt;/span&gt;&lt;span style=&quot;background-color: initial;&quot;&gt;{get; set;}(): string&lt;/span&gt;&lt;/div&gt;&lt;div&gt;&lt;span style=&quot;background-color: initial;&quot;&gt;+Apartment&lt;/span&gt;&lt;span style=&quot;background-color: initial;&quot;&gt;{get; set;}(): string&lt;/span&gt;&lt;/div&gt;" style="text;html=1;align=left;verticalAlign=middle;whiteSpace=wrap;rounded=0;fillColor=default;" vertex="1" parent="9AeZooRBN76Ic_oo0eFn-8">
          <mxGeometry y="140" width="200" height="100" as="geometry" />
        </mxCell>
        <mxCell id="9AeZooRBN76Ic_oo0eFn-11" value="" style="endArrow=none;html=1;rounded=0;exitX=0;exitY=0.5;exitDx=0;exitDy=0;entryX=1;entryY=0.5;entryDx=0;entryDy=0;" edge="1" parent="9AeZooRBN76Ic_oo0eFn-8">
          <mxGeometry width="50" height="50" relative="1" as="geometry">
            <mxPoint y="140" as="sourcePoint" />
            <mxPoint x="200" y="140" as="targetPoint" />
          </mxGeometry>
        </mxCell>
        <mxCell id="9AeZooRBN76Ic_oo0eFn-14" value="enumeration&lt;div&gt;Category&lt;/div&gt;" style="swimlane;whiteSpace=wrap;html=1;startSize=40;" vertex="1" parent="1">
          <mxGeometry x="80" y="40" width="200" height="200" as="geometry" />
        </mxCell>
        <mxCell id="9AeZooRBN76Ic_oo0eFn-15" value="&lt;div&gt;Food,&lt;/div&gt;&lt;div&gt;Clothes,&lt;/div&gt;&lt;div&gt;Boots,&lt;/div&gt;&lt;div&gt;Toys,&lt;/div&gt;&lt;div&gt;Electronics,&lt;/div&gt;&lt;div&gt;Accessories,&lt;/div&gt;&lt;div&gt;Books&lt;/div&gt;" style="text;html=1;align=center;verticalAlign=middle;whiteSpace=wrap;rounded=0;fontStyle=4;fillColor=default;" vertex="1" parent="9AeZooRBN76Ic_oo0eFn-14">
          <mxGeometry y="40" width="200" height="160" as="geometry" />
        </mxCell>
        <mxCell id="9AeZooRBN76Ic_oo0eFn-16" style="edgeStyle=orthogonalEdgeStyle;rounded=0;orthogonalLoop=1;jettySize=auto;html=1;entryX=0.5;entryY=0;entryDx=0;entryDy=0;startArrow=open;startFill=0;endArrow=diamondThin;endFill=1;endSize=20;startSize=10;" edge="1" parent="1" source="9AeZooRBN76Ic_oo0eFn-15" target="GMgN1Cl_ILHEnfedxMWd-5">
          <mxGeometry relative="1" as="geometry" />
        </mxCell>
      </root>
    </mxGraphModel>
  </diagram>
</mxfile>
